<svg width="251" height="251" viewBox="0 0 251 251" fill="none" xmlns="http://www.w3.org/2000/svg">
<g filter="url(#filter0_d)">
<path d="M7 3H244V240H7V3Z" fill="#48BDFF"/>
<path d="M7 3H244V240H7V3Z" fill="url(#paint0_radial)" fill-opacity="0.5"/>
<path d="M14.4062 3C100.739 91.4874 149.303 90.7565 236.594 3" stroke="black"/>
<path d="M177.394 69.6563C177.394 69.6286 177.371 69.6063 177.344 69.6063H176.894C176.866 69.6063 176.844 69.6286 176.844 69.6563C176.844 69.6839 176.866 69.7063 176.894 69.7063H177.294V70.1063C177.294 70.1339 177.316 70.1563 177.344 70.1563C177.371 70.1563 177.394 70.1339 177.394 70.1063V69.6563ZM7.03536 240.035L177.379 69.6916L177.308 69.6209L6.96464 239.965L7.03536 240.035Z" fill="black"/>
<path d="M177.844 69.6563C177.844 69.3801 177.62 69.1563 177.344 69.1563L172.844 69.1563C172.568 69.1563 172.344 69.3801 172.344 69.6563C172.344 69.9324 172.568 70.1563 172.844 70.1563H176.844V74.1563C176.844 74.4324 177.068 74.6563 177.344 74.6563C177.62 74.6563 177.844 74.4324 177.844 74.1563L177.844 69.6563ZM7.35355 240.354L177.697 70.0098L176.99 69.3027L6.64645 239.646L7.35355 240.354Z" fill="black"/>
<path d="M80.5625 165.937C80.5625 166.214 80.7864 166.437 81.0625 166.437L85.5625 166.437C85.8386 166.437 86.0625 166.214 86.0625 165.937C86.0625 165.661 85.8386 165.437 85.5625 165.437H81.5625V161.437C81.5625 161.161 81.3386 160.937 81.0625 160.937C80.7864 160.937 80.5625 161.161 80.5625 161.437L80.5625 165.937ZM243.646 2.64645L80.709 165.584L81.4161 166.291L244.354 3.35355L243.646 2.64645Z" fill="black"/>
<path d="M177.344 173.844C177.62 173.844 177.844 173.62 177.844 173.344L177.844 168.844C177.844 168.568 177.62 168.344 177.344 168.344C177.068 168.344 176.844 168.568 176.844 168.844L176.844 172.844L172.844 172.844C172.568 172.844 172.344 173.068 172.344 173.344C172.344 173.62 172.568 173.844 172.844 173.844L177.344 173.844ZM6.64645 3.35355L176.99 173.697L177.697 172.99L7.35355 2.64645L6.64645 3.35355Z" fill="black"/>
<path d="M81.0625 76.5625C80.7864 76.5625 80.5625 76.7863 80.5625 77.0625L80.5625 81.5625C80.5625 81.8386 80.7864 82.0625 81.0625 82.0625C81.3387 82.0625 81.5625 81.8386 81.5625 81.5625L81.5625 77.5625L85.5625 77.5625C85.8387 77.5625 86.0625 77.3386 86.0625 77.0625C86.0625 76.7863 85.8387 76.5625 85.5625 76.5625L81.0625 76.5625ZM244.354 239.646L81.4161 76.7089L80.709 77.416L243.646 240.354L244.354 239.646Z" fill="black"/>
<path d="M7 17.8125C118.149 99.4274 117.292 144.811 7 225.188" stroke="black"/>
<path d="M7 32.625C98.5813 113.697 98.401 129.469 7 210.375" stroke="black"/>
</g>
<path d="M111.619 95.288H119.299V155H110.851L77.155 105.176V155H69.475V95.288H78.403L111.619 144.632V95.288ZM175.051 146.36V130.712C175.051 129.496 174.859 128.696 174.475 128.312C174.155 127.928 173.355 127.736 172.075 127.736H144.139C139.083 127.736 136.555 125.208 136.555 120.152V102.872C136.555 97.816 139.083 95.288 144.139 95.288H175.531C180.587 95.288 183.115 97.816 183.115 102.872V112.376H174.667V103.928C174.667 102.648 174.475 101.848 174.091 101.528C173.771 101.144 172.971 100.952 171.691 100.952H147.979C146.763 100.952 145.963 101.144 145.579 101.528C145.195 101.848 145.003 102.648 145.003 103.928V119.096C145.003 120.376 145.195 121.208 145.579 121.592C145.963 121.912 146.763 122.072 147.979 122.072H175.819C180.875 122.072 183.403 124.6 183.403 129.656V147.416C183.403 152.472 180.875 155 175.819 155H144.331C139.275 155 136.747 152.472 136.747 147.416V137.912H145.195V146.36C145.195 147.64 145.387 148.472 145.771 148.856C146.155 149.176 146.955 149.336 148.171 149.336H172.075C173.355 149.336 174.155 149.176 174.475 148.856C174.859 148.472 175.051 147.64 175.051 146.36Z" fill="white"/>
<defs>
<filter id="filter0_d" x="0.396423" y="0.396454" width="250.207" height="250.207" filterUnits="userSpaceOnUse" color-interpolation-filters="sRGB">
<feFlood flood-opacity="0" result="BackgroundImageFix"/>
<feColorMatrix in="SourceAlpha" type="matrix" values="0 0 0 0 0 0 0 0 0 0 0 0 0 0 0 0 0 0 127 0" result="hardAlpha"/>
<feOffset dy="4"/>
<feGaussianBlur stdDeviation="2"/>
<feComposite in2="hardAlpha" operator="out"/>
<feColorMatrix type="matrix" values="0 0 0 0 0 0 0 0 0 0 0 0 0 0 0 0 0 0 0.25 0"/>
<feBlend mode="normal" in2="BackgroundImageFix" result="effect1_dropShadow"/>
<feBlend mode="normal" in="SourceGraphic" in2="effect1_dropShadow" result="shape"/>
</filter>
<radialGradient id="paint0_radial" cx="0" cy="0" r="1" gradientUnits="userSpaceOnUse" gradientTransform="translate(125.5 121.5) rotate(90) scale(118.5)">
<stop stop-color="white"/>
<stop offset="0.9999" stop-color="#00B0D7" stop-opacity="0.02"/>
<stop offset="1" stop-color="#00D1FF" stop-opacity="0.3"/>
</radialGradient>
</defs>
</svg>
